<svg id="visual" viewBox="0 0 675 900" width="675" height="900" xmlns="http://www.w3.org/2000/svg" xmlns:xlink="http://www.w3.org/1999/xlink" version="1.1"><rect width="675" height="900" fill="#FFFFFF"></rect><g><g transform="translate(393 484)"><path d="M52.8 -63.9C66.8 -51.1 75.4 -33 78.5 -14C81.7 4.9 79.2 24.6 70.6 41.9C61.9 59.1 47.1 73.9 28.9 81.4C10.7 88.8 -10.8 88.9 -29.6 81.8C-48.3 74.8 -64.3 60.5 -73.6 43.1C-83 25.7 -85.9 5 -81.6 -13.6C-77.4 -32.3 -66.2 -48.9 -51.4 -61.5C-36.6 -74.1 -18.3 -82.7 0.5 -83.3C19.4 -84 38.8 -76.6 52.8 -63.9Z" fill="#DCF2F3"></path></g><g transform="translate(431 31)"><path d="M44.9 -53.7C56.8 -43.5 64 -28.1 66.7 -11.9C69.4 4.3 67.5 21.1 60 35.2C52.5 49.3 39.4 60.7 24.1 66.2C8.9 71.7 -8.5 71.3 -23.7 65.6C-38.9 59.8 -52 48.7 -59.2 34.8C-66.5 21 -67.8 4.4 -65.3 -11.8C-62.8 -28 -56.4 -43.7 -44.8 -53.9C-33.3 -64.1 -16.6 -68.8 -0.1 -68.7C16.5 -68.6 33 -63.8 44.9 -53.7Z" fill="#DCF2F3"></path></g><g transform="translate(41 602)"><path d="M53.4 -63.9C67.4 -51.9 75.6 -33.4 78.5 -14.2C81.4 4.9 78.9 24.5 70.3 41.5C61.6 58.5 46.7 72.9 28.9 79.3C11.2 85.6 -9.4 84 -27.3 76.7C-45.1 69.4 -60.3 56.5 -70.1 40.1C-80 23.8 -84.6 4 -81.6 -14.7C-78.6 -33.4 -68.1 -51 -53.3 -62.8C-38.4 -74.6 -19.2 -80.6 0.3 -80.9C19.7 -81.2 39.4 -75.8 53.4 -63.9Z" fill="#DCF2F3"></path></g><g transform="translate(630 485)"><path d="M44.1 -52.8C56.1 -42.4 64.3 -27.6 66.4 -12.2C68.4 3.1 64.4 19 56.6 32.8C48.8 46.6 37.1 58.3 22.9 63.9C8.7 69.5 -8.1 69 -22.9 63.4C-37.7 57.8 -50.4 47.1 -58.4 33.6C-66.4 20 -69.7 3.6 -66.9 -11.8C-64.2 -27.1 -55.5 -41.4 -43.3 -51.8C-31.2 -62.2 -15.6 -68.7 0.2 -69C16 -69.2 32 -63.2 44.1 -52.8Z" fill="#DCF2F3"></path></g><g transform="translate(192 876)"><path d="M50.5 -60.1C64.5 -48.5 74.2 -31.6 78.1 -13.2C82 5.2 80 25.1 71.2 41.9C62.5 58.7 46.8 72.2 28.7 78.8C10.6 85.4 -10.1 84.9 -28.2 78.1C-46.3 71.2 -61.9 58 -70.5 41.5C-79.1 25 -80.8 5.2 -76.5 -12.5C-72.2 -30.3 -62 -46 -48.2 -57.6C-34.5 -69.3 -17.3 -76.9 0.5 -77.5C18.3 -78.1 36.5 -71.7 50.5 -60.1Z" fill="#DCF2F3"></path></g><g transform="translate(6 199)"><path d="M52.9 -62.1C68 -50.4 79.3 -33.2 83 -14.3C86.8 4.6 83 25.1 72.9 41.5C62.8 57.9 46.3 70.1 27.8 77.2C9.2 84.3 -11.5 86.3 -28.7 79.7C-45.9 73.1 -59.6 57.7 -68.2 40.5C-76.8 23.3 -80.3 4.3 -77.6 -14.1C-74.9 -32.5 -65.9 -50.2 -52 -62.1C-38 -74 -19 -80.1 0 -80C18.9 -80 37.8 -73.8 52.9 -62.1Z" fill="#DCF2F3"></path></g><g transform="translate(561 823)"><path d="M38.6 -46.5C49.4 -36.9 57.1 -24.2 59.2 -10.6C61.4 2.9 58 17.2 50.8 29.1C43.6 40.9 32.7 50.3 19.9 55.3C7 60.3 -7.6 60.8 -21.4 56.7C-35.1 52.6 -47.9 43.8 -54.6 31.8C-61.3 19.7 -61.9 4.3 -59.2 -10.4C-56.6 -25.2 -50.8 -39.4 -40.4 -49.1C-30 -58.8 -15 -63.9 -0.6 -63.3C13.9 -62.6 27.8 -56.1 38.6 -46.5Z" fill="#DCF2F3"></path></g><g transform="translate(627 199)"><path d="M38.4 -46.5C48.8 -37.1 55.6 -24 58.1 -10.2C60.6 3.7 58.8 18.3 52.1 30.1C45.3 42 33.6 51 20.1 56.4C6.6 61.8 -8.6 63.7 -21.5 59C-34.3 54.3 -44.8 43.1 -52.3 30.2C-59.8 17.2 -64.4 2.5 -62.7 -11.7C-61 -26 -52.9 -39.7 -41.4 -49C-29.9 -58.2 -15 -62.8 -0.5 -62.3C14 -61.7 28.1 -55.9 38.4 -46.5Z" fill="#DCF2F3"></path></g></g></svg>