<svg id="visual" viewBox="0 0 600 900" width="600" height="900" xmlns="http://www.w3.org/2000/svg" xmlns:xlink="http://www.w3.org/1999/xlink" version="1.1"><rect x="0" y="0" width="600" height="900" fill="#FFFFFF"></rect><path d="M0 468L25 449.2C50 430.3 100 392.7 150 356.8C200 321 250 287 300 299.2C350 311.3 400 369.7 450 372.5C500 375.3 550 322.7 575 296.3L600 270L600 0L575 0C550 0 500 0 450 0C400 0 350 0 300 0C250 0 200 0 150 0C100 0 50 0 25 0L0 0Z" fill="#DCF2F3" stroke-linecap="round" stroke-linejoin="miter"></path></svg>