<svg id="visual" viewBox="0 0 600 900" width="600" height="900" xmlns="http://www.w3.org/2000/svg" xmlns:xlink="http://www.w3.org/1999/xlink" version="1.1"><rect x="0" y="0" width="600" height="900" fill="#FFFFFF"></rect><path d="M0 551L25 518.7C50 486.3 100 421.7 150 441.5C200 461.3 250 565.7 300 581.2C350 596.7 400 523.3 450 488C500 452.7 550 455.3 575 456.7L600 458L600 901L575 901C550 901 500 901 450 901C400 901 350 901 300 901C250 901 200 901 150 901C100 901 50 901 25 901L0 901Z" fill="#DCF2F3" stroke-linecap="round" stroke-linejoin="miter"></path></svg>